<svg width="15" height="16" viewBox="0 0 15 16" fill="none" xmlns="http://www.w3.org/2000/svg">
<path d="M14.9962 2.41461L6.43885 10.9967L3.26806 7.80127L4.32553 6.74166L6.44188 8.87446L13.9417 1.3595L14.9962 2.41461ZM13.3356 6.20518C13.4324 6.63429 13.4917 7.08591 13.491 7.54498C13.4862 10.8713 10.8013 13.5617 7.49114 13.5569C4.18098 13.5522 1.50376 10.8542 1.50852 7.52782C1.51328 4.20147 4.19822 1.51112 7.50838 1.51586C8.69165 1.51755 9.78455 1.8653 10.7123 2.46116L11.7923 1.379C10.5803 0.519338 9.1057 0.0130054 7.51053 0.0107216C3.37658 0.0048033 0.0166576 3.3715 0.0107103 7.52568C0.00476298 11.6799 3.35503 15.0562 7.48898 15.0621C11.6229 15.068 14.9829 11.7013 14.9888 7.54712C14.9901 6.65157 14.8266 5.7934 14.5431 4.99527L13.3356 6.20518Z" fill="#758191"/>
<path d="M14.9962 2.41461L6.43885 10.9967L3.26806 7.80127L4.32553 6.74166L6.44188 8.87446L13.9417 1.3595L14.9962 2.41461ZM13.3356 6.20518C13.4324 6.63429 13.4917 7.08591 13.491 7.54498C13.4862 10.8713 10.8013 13.5617 7.49114 13.5569C4.18098 13.5522 1.50376 10.8542 1.50852 7.52782C1.51328 4.20147 4.19822 1.51112 7.50838 1.51586C8.69165 1.51755 9.78455 1.8653 10.7123 2.46116L11.7923 1.379C10.5803 0.519338 9.1057 0.0130054 7.51053 0.0107216C3.37658 0.0048033 0.0166576 3.3715 0.0107103 7.52568C0.00476298 11.6799 3.35503 15.0562 7.48898 15.0621C11.6229 15.068 14.9829 11.7013 14.9888 7.54712C14.9901 6.65157 14.8266 5.7934 14.5431 4.99527L13.3356 6.20518Z" fill="#758191"/>
<path d="M14.9962 2.41461L6.43885 10.9967L3.26806 7.80127L4.32553 6.74166L6.44188 8.87446L13.9417 1.3595L14.9962 2.41461ZM13.3356 6.20518C13.4324 6.63429 13.4917 7.08591 13.491 7.54498C13.4862 10.8713 10.8013 13.5617 7.49114 13.5569C4.18098 13.5522 1.50376 10.8542 1.50852 7.52782C1.51328 4.20147 4.19822 1.51112 7.50838 1.51586C8.69165 1.51755 9.78455 1.8653 10.7123 2.46116L11.7923 1.379C10.5803 0.519338 9.1057 0.0130054 7.51053 0.0107216C3.37658 0.0048033 0.0166576 3.3715 0.0107103 7.52568C0.00476298 11.6799 3.35503 15.0562 7.48898 15.0621C11.6229 15.068 14.9829 11.7013 14.9888 7.54712C14.9901 6.65157 14.8266 5.7934 14.5431 4.99527L13.3356 6.20518Z" fill="#758191"/>
</svg>
